<?xml version="1.0" encoding="utf-8"?>
<!-- Generator: Adobe Illustrator 19.1.1, SVG Export Plug-In . SVG Version: 6.00 Build 0)  -->
<svg version="1.1" id="Layer_1" xmlns="http://www.w3.org/2000/svg" xmlns:xlink="http://www.w3.org/1999/xlink" x="0px" y="0px"
	 viewBox="120 -120 1200 800" style="enable-background:new 120 -120 1200 800;" xml:space="preserve">
<style type="text/css">
	.st0{fill:#DCDBDB;}
	.st1{fill:none;stroke:#FFFFFF;stroke-width:20;}
	.st2{fill:#BCBCBC;}
</style>
<path class="st0" d="M1320-3.2H120v-119.9h1200V-3.2z"/>
<path class="st1" d="M1320-63.1H120"/>
<path class="st2" d="M1175.9,673.9h-143.1V76.7h143.1V673.9z"/>
<path class="st2" d="M1320,465.2h-127V76.7h127V465.2z"/>
<path class="st2" d="M1016.7,616.6H901.3v-36.2h115.4V616.6z"/>
<path class="st2" d="M404.8,115h-86.9V20.6h86.9V115z"/>
<path class="st2" d="M1320,609.3h-127v-127h127V609.3z"/>
<path class="st0" d="M250.5,681.1H120V-3h130.5V681.1z"/>
<path class="st1" d="M185.2,676.9v-734"/>
<path class="st2" d="M404.8,385.8h-43.4V135h43.4V385.8z"/>
<path class="st2" d="M341.1,385.7h-68.8V135.1h68.8V385.7z"/>
<path class="st2" d="M302.6,76.7h-30.3V19.2h30.3V76.7z"/>
<path class="st2" d="M890.7,616.6H775.3v-36.2h115.4V616.6z"/>
<path class="st2" d="M1016.7,663.1H901.3v-36.2h115.4V663.1z"/>
<path class="st2" d="M890.7,663.1H775.3v-36.2h115.4V663.1z"/>
<path class="st2" d="M757.5,663.1H460.3v-80.8h297.2V663.1z"/>
<path class="st0" d="M1018.6,563.5H247V521h771.6V563.5z"/>
</svg>
